<mxfile host="app.diagrams.net" modified="2024-07-08T16:26:45.969Z" agent="Mozilla/5.0 (Macintosh; Intel Mac OS X 10_15_7) AppleWebKit/605.1.15 (KHTML, like Gecko) Version/17.5 Safari/605.1.15" version="24.6.4" etag="nZCC9hEyx9cgPDMesZWT" type="github">
  <diagram name="Page-1" id="JW77Xdlgn8xSlfo1YUH-">
    <mxGraphModel>
      <root>
        <mxCell id="0" />
        <mxCell id="1" parent="0" />
      </root>
    </mxGraphModel>
  </diagram>
</mxfile>
